# xmcd
#
# Track frame offsets:
#	150
#	18429
#	35828
#	56182
#	73875
#	95075
#	112654
#	130759
#	148507
#	165632
#	185226
#	207110
#	209782
#	224317
#	245775
#
# Disc length: 3685 seconds
#
# Revision: 1
# Processed by: cddbd v1.5.2PL0 Copyright (c) Steve Scherf et al.
# Submitted via: audiograbber 1.80
#
DISCID=f30e630f
DTITLE=Sin Bandera - De Viaje
DYEAR=1900
DGENRE=
TTITLE0=Amor real
TTITLE1=Ven
TTITLE2=abc
TTITLE3=contigo
TTITLE4=magia
TTITLE5=bién
TTITLE6=que lloro
TTITLE7=canción para los días lluviosos
TTITLE8=mientes tan bién
TTITLE9=puede ser
TTITLE10=aquí
TTITLE11=te esperaré
TTITLE12=te esperaré
TTITLE13=suficiente
TTITLE14=tal vez
EXTD=
EXTT0=
EXTT1=
EXTT2=
EXTT3=
EXTT4=
EXTT5=
EXTT6=
EXTT7=
EXTT8=
EXTT9=
EXTT10=
EXTT11=
EXTT12=
EXTT13=
EXTT14=
PLAYORDER=
